<?xml version="1.0" standalone="no"?>
<!DOCTYPE svg PUBLIC "-//W3C//DTD SVG 20010904//EN"
 "http://www.w3.org/TR/2001/REC-SVG-20010904/DTD/svg10.dtd">
<svg version="1.0" xmlns="http://www.w3.org/2000/svg"
 width="506.000000pt" height="611.000000pt" viewBox="0 0 506.000000 611.000000"
 preserveAspectRatio="xMidYMid meet">

<g transform="translate(0.000000,611.000000) scale(0.100000,-0.100000)"
fill="#000000" stroke="none">
<path d="M2136 4381 c-32 -21 -55 -56 -56 -83 0 -10 -17 -25 -44 -37 -52 -22
-76 -61 -76 -121 0 -22 -4 -40 -10 -40 -15 0 -40 -56 -40 -90 0 -35 46 -90 75
-90 29 0 83 28 94 48 6 12 11 36 11 55 0 29 4 36 27 42 14 3 38 15 52 26 l25
20 22 -44 c13 -24 40 -59 61 -77 43 -38 152 -90 185 -89 18 1 15 3 -11 10 -49
15 -34 19 29 7 73 -13 130 -3 179 32 94 69 92 174 -4 231 -23 14 -38 32 -44
55 -23 82 -92 134 -181 134 -28 0 -65 -7 -82 -16 -29 -15 -31 -15 -59 12 -38
36 -111 44 -153 15z"/>
<path d="M2695 3960 c-16 -17 -50 -37 -75 -45 -25 -7 -36 -14 -26 -14 31 -1
103 37 120 64 22 33 16 31 -19 -5z"/>
<path d="M2508 3893 c12 -2 32 -2 45 0 12 2 2 4 -23 4 -25 0 -35 -2 -22 -4z"/>
<path d="M2518 3733 c-8 -16 -78 -152 -155 -303 -77 -151 -139 -281 -136 -288
3 -9 -13 -5 -43 11 -202 100 -365 179 -367 176 -12 -20 -146 -299 -151 -316
-6 -19 -2 -23 32 -33 42 -11 107 -68 123 -107 10 -28 16 -140 7 -149 -16 -15
-38 8 -52 53 l-15 48 0 -42 c-1 -23 -4 -48 -7 -57 -9 -24 -33 -19 -44 9 -12
31 -18 31 -30 1 -10 -28 -42 -51 -82 -61 -36 -9 -37 9 -2 32 l26 17 -34 17
c-18 10 -36 18 -39 19 -12 0 -62 -111 -53 -120 5 -5 88 -48 183 -95 238 -117
282 -138 286 -133 4 4 212 429 290 593 l43 90 -30 16 c-26 13 -28 18 -16 25 9
5 29 37 46 71 26 51 29 62 16 67 -19 7 -6 33 46 90 41 46 210 364 203 384 -8
21 -31 13 -45 -15z"/>
<path d="M3419 3421 c-36 -12 -73 -32 -81 -45 -4 -6 7 -26 25 -45 41 -43 145
-121 162 -121 7 0 18 23 25 53 19 81 30 89 24 17 -7 -79 -49 -292 -69 -351 -8
-23 -13 -44 -11 -47 3 -2 16 36 31 84 34 114 45 141 39 94 -15 -134 -29 -221
-41 -255 -7 -22 -10 -35 -5 -30 13 13 29 69 39 130 8 48 8 45 13 -45 l5 -95
70 -3 c81 -4 172 16 284 60 42 17 77 32 79 34 2 1 -17 21 -43 45 -25 23 -51
52 -58 63 -6 12 -14 86 -17 166 -5 129 -8 150 -30 189 -38 68 -99 96 -215 97
-49 1 -115 4 -145 7 -30 4 -67 3 -81 -2z"/>
<path d="M3357 3262 c3 -12 9 -25 14 -28 14 -8 11 10 -6 32 -13 18 -14 18 -8
-4z"/>
<path d="M3006 3205 c-3 -9 -6 -22 -5 -28 0 -7 5 -1 10 12 5 13 8 26 5 28 -2
2 -6 -3 -10 -12z"/>
<path d="M3041 3183 c-10 -26 -10 -27 4 -9 8 11 15 23 15 28 0 15 -7 8 -19
-19z"/>
<path d="M3077 3178 c-9 -31 -2 -33 11 -3 6 14 8 25 3 25 -5 0 -11 -10 -14
-22z"/>
<path d="M3430 3191 c0 -14 59 -51 80 -50 8 0 3 6 -12 12 -14 7 -36 21 -47 31
-12 11 -21 14 -21 7z"/>
<path d="M3113 3160 c-6 -17 -8 -30 -3 -30 8 0 24 50 18 56 -2 2 -9 -10 -15
-26z"/>
<path d="M3150 3151 c-12 -24 -13 -34 -1 -27 9 6 22 46 15 46 -2 0 -8 -9 -14
-19z"/>
<path d="M3191 3153 c-1 -6 -4 -20 -7 -30 -5 -17 -5 -17 6 0 6 10 9 23 6 30
-3 9 -5 9 -5 0z"/>
<path d="M3222 3121 c-6 -17 -9 -31 -6 -31 7 0 25 52 20 57 -2 2 -8 -10 -14
-26z"/>
<path d="M3467 2828 c-9 -23 -15 -43 -13 -45 2 -2 11 15 20 38 9 23 15 43 13
45 -2 2 -11 -15 -20 -38z"/>
<path d="M3473 1800 l-242 -5 -53 -52 c-57 -56 -104 -81 -122 -63 -7 7 -2 19
15 37 13 16 33 38 44 51 l19 23 -29 -7 c-82 -19 -121 -71 -136 -183 -7 -47
-15 -71 -30 -83 -20 -17 -20 -22 -10 -145 6 -70 15 -231 21 -358 10 -222 30
-611 34 -629 0 -4 -27 -16 -60 -25 -155 -44 -316 -168 -263 -202 18 -12 452
-12 445 0 -12 19 53 85 127 130 l40 24 -7 -80 -7 -80 137 -6 c75 -4 218 -7
316 -7 l178 0 11 26 c5 16 7 63 3 115 -5 69 -10 89 -23 92 -15 4 -15 5 0 6 18
1 32 86 33 196 1 55 -4 68 -52 151 -67 116 -75 165 -43 284 29 104 23 137 -40
236 -27 43 -49 82 -49 87 0 5 42 -14 94 -42 185 -100 299 -121 451 -85 l80 20
-2 111 c-1 62 -9 180 -17 263 -9 82 -16 159 -16 169 0 18 -14 19 -237 25 -131
3 -267 7 -303 9 -36 1 -174 0 -307 -3z"/>
<path d="M764 1452 c19 -84 27 -151 22 -184 -11 -66 12 -175 61 -297 l48 -116
1 -200 c1 -110 3 -207 4 -215 1 -8 -1 -67 -6 -131 l-7 -116 69 -6 c38 -4 189
-7 337 -7 l267 0 0 83 0 84 -62 26 c-35 14 -77 28 -94 32 -42 8 -63 56 -76
170 -9 74 -6 148 16 421 14 183 26 367 26 409 l0 78 -127 -9 c-157 -11 -269
-11 -392 -2 l-93 8 6 -28z"/>
</g>
</svg>
